<?xml version="1.0" encoding="utf-8"?>
<!-- Generator: Adobe Illustrator 17.0.0, SVG Export Plug-In . SVG Version: 6.00 Build 0)  -->
<!DOCTYPE svg PUBLIC "-//W3C//DTD SVG 1.1//EN" "http://www.w3.org/Graphics/SVG/1.1/DTD/svg11.dtd">
<svg version="1.1" xmlns="http://www.w3.org/2000/svg" xmlns:xlink="http://www.w3.org/1999/xlink" x="0px" y="0px"
	 width="612.566px" height="123.086px" viewBox="0 0 612.566 123.086" enable-background="new 0 0 612.566 123.086"
	 xml:space="preserve">
<g id="Layer_2">
</g>
<g id="Layer_1">
	<g>
		<path fill="#9B0404" d="M136.101,91.431h-17.39V51.775c0-3.952-1.318-13.438-12.648-13.438c-7.772,0-13.174,5.797-13.174,13.438
			v39.655H75.366V51.775c0-3.952-1.186-13.438-12.647-13.438c-7.641,0-13.043,5.797-13.043,13.438v39.655H32.155V23.582h16.731
			v6.588c4.216-5.139,10.144-8.301,17.522-8.301c8.432,0,15.545,3.558,20.288,9.618c4.874-5.929,11.989-9.618,20.685-9.618
			c18.18,0,28.72,12.121,28.72,29.906V91.431z"/>
		<path fill="#9B0404" d="M158.978,64.291c2.239,8.3,8.827,13.438,16.995,13.438c5.797,0,11.462-2.503,14.36-7.905h18.575
			c-3.951,13.834-15.94,23.188-32.804,23.188c-19.103,0-34.78-15.81-34.78-35.439s15.678-35.703,34.78-35.703
			c20.024,0,36.625,15.546,34.122,42.422H158.978z M192.968,50.062c-2.108-7.904-8.695-12.91-16.995-12.91
			c-7.904,0-14.229,5.006-16.731,12.91H192.968z"/>
		<path fill="#9B0404" d="M254.614,39.128c-6.982-0.79-12.779,0-16.73,4.216c-3.689,3.82-4.348,9.354-4.348,14.756v33.331h-17.391
			V23.582h16.6v6.719c5.533-6.851,13.701-9.354,21.869-8.036V39.128z"/>
		<path fill="#9B0404" d="M288.539,93.012c-20.42,0-35.043-15.81-35.043-35.439s14.623-35.703,35.043-35.703
			c16.337,0,28.721,9.223,32.674,24.505h-18.576c-2.371-4.611-7.773-8.563-14.098-8.563c-9.617,0-17.39,8.959-17.39,19.894
			c0,10.671,7.772,19.498,17.39,19.498c6.456,0,11.989-3.952,14.229-8.695h18.576C317.392,83.921,305.008,93.012,288.539,93.012z"/>
		<path fill="#9B0404" d="M386.127,91.431h-16.6v-6.192c-4.217,4.875-10.145,7.773-17.26,7.773
			c-16.072,0-26.744-11.989-26.744-29.774V23.582h17.391v39.655c0,3.82,1.318,13.307,12.648,13.307
			c7.772,0,13.174-5.797,13.174-13.307V23.582h17.391V91.431z"/>
		<path fill="#9B0404" d="M434.229,39.128c-6.982-0.79-12.779,0-16.73,4.216c-3.689,3.82-4.348,9.354-4.348,14.756v33.331H395.76
			V23.582h16.6v6.719c5.533-6.851,13.701-9.354,21.869-8.036V39.128z"/>
		<path opacity="0.5" fill="#9B0404" d="M520.067,91.431h-18.709V72.854h18.709V91.431z"/>
		<path opacity="0.5" fill="#9B0404" d="M546.047,99.73c0,17.785-10.804,23.978-27.93,21.606v-15.414
			c6.982,0.658,10.407-1.317,10.407-8.169V23.582h17.522V99.73z M546.047,16.205h-17.522V0h17.522V16.205z"/>
		<path opacity="0.5" fill="#9B0404" d="M582.791,93.012c-17.258,0-30.037-9.091-32.146-23.714h17.653
			c2.372,5.797,9.354,7.904,14.492,7.904c6.982,0,12.252-2.107,12.252-6.061c0-3.82-2.371-5.401-14.229-7.245
			c-12.119-1.845-28.324-5.139-28.324-20.289c0-10.671,9.354-21.738,28.983-21.738c15.546,0,27.14,8.432,29.38,21.211h-18.05
			c-1.054-3.161-4.874-5.665-11.33-5.665c-8.036,0-11.329,2.898-11.329,5.402c0,3.557,5.006,4.742,13.438,6.06
			c16.863,2.767,28.983,6.456,28.983,21.211C612.566,83.526,600.182,93.012,582.791,93.012z"/>
		<path fill="#9B0404" d="M489.037,23.582l-16.205,49.009l-16.6-49.009h-18.443l26.217,69.034l-1.977,5.138
			c-2.723,7.301-6.492,9.603-14.146,9.42l8.927,7.708l-9.326,8.053h-0.851c14.083,0.872,24.398-1.583,30.941-19.12l30.038-80.232
			H489.037z"/>
		<polygon fill="#333333" points="325.044,106.758 334.452,114.881 325.125,122.934 437.819,122.934 447.146,114.881 
			437.738,106.758 		"/>
		<polygon fill="#333333" points="202.376,106.758 211.784,114.881 202.457,122.934 315.151,122.934 324.478,114.881 
			315.07,106.758 		"/>
		<polygon fill="#333333" points="79.708,106.758 89.116,114.881 79.79,122.934 192.483,122.934 201.81,114.881 192.402,106.758 		
			"/>
		<polygon fill="#333333" points="0,23.582 0,29.469 8.053,38.795 16.176,29.387 16.176,23.582 		"/>
		<polygon fill="#333333" points="69.734,106.758 16.176,106.758 16.176,38.795 8.053,48.203 0,38.877 0,106.758 0,122.934 
			16.176,122.934 69.816,122.934 79.142,114.881 		"/>
	</g>
</g>
</svg>
